<!--
  - Copyright © 2024 the original author or authors.
  -
  - Licensed under the Apache License, Version 2.0 (the "License");
  - you may not use this file except in compliance with the License.
  - You may obtain a copy of the License at
  -
  -     http://www.apache.org/licenses/LICENSE-2.0
  -
  - Unless required by applicable law or agreed to in writing, software
  - distributed under the License is distributed on an "AS IS" BASIS,
  - WITHOUT WARRANTIES OR CONDITIONS OF ANY KIND, either express or implied.
  - See the License for the specific language governing permissions and
  - limitations under the License.
  -->

<svg width="28" height="28" viewBox="0 0 28 28" fill="none" xmlns="http://www.w3.org/2000/svg">
  <g id="icon-&#230;&#136;&#145;&#231;&#154;&#132;">
    <g id="Frame">
      <g id="Vector">
        <path
          d="M14 24C8.47715 24 4 19.5228 4 14C4 8.47715 8.47715 4 14 4C19.5228 4 24 8.47715 24 14C24 19.5228 19.5228 24 14 24ZM9 14C9 16.7614 11.2386 19 14 19C16.7614 19 19 16.7614 19 14H17C17 15.6569 15.6569 17 14 17C12.3431 17 11 15.6569 11 14H9Z"
          fill="black"/>
        <path
          d="M14 24C8.47715 24 4 19.5228 4 14C4 8.47715 8.47715 4 14 4C19.5228 4 24 8.47715 24 14C24 19.5228 19.5228 24 14 24ZM9 14C9 16.7614 11.2386 19 14 19C16.7614 19 19 16.7614 19 14H17C17 15.6569 15.6569 17 14 17C12.3431 17 11 15.6569 11 14H9Z"
          fill="url(#paint0_linear_29_457)"/>
      </g>
    </g>
  </g>
  <defs>
    <linearGradient id="paint0_linear_29_457" x1="14" y1="4" x2="14" y2="24" gradientUnits="userSpaceOnUse">
      <stop stop-color="#53B99D"/>
      <stop offset="1" stop-color="#36D1A1"/>
    </linearGradient>
  </defs>
</svg>
