<!--
  - Copyright © 2024 the original author or authors.
  -
  - Licensed under the Apache License, Version 2.0 (the "License");
  - you may not use this file except in compliance with the License.
  - You may obtain a copy of the License at
  -
  -     http://www.apache.org/licenses/LICENSE-2.0
  -
  - Unless required by applicable law or agreed to in writing, software
  - distributed under the License is distributed on an "AS IS" BASIS,
  - WITHOUT WARRANTIES OR CONDITIONS OF ANY KIND, either express or implied.
  - See the License for the specific language governing permissions and
  - limitations under the License.
  -->

<svg width="28" height="28" viewBox="0 0 28 28" fill="none" xmlns="http://www.w3.org/2000/svg">
  <g id="icon-&#233;&#166;&#150;&#233;&#161;&#181;">
    <g id="Frame">
      <g id="Vector">
        <path
          d="M11 21H14V14.9416L10 11.454L6 14.9416V21H9V17H11V21ZM23 23H5C4.44772 23 4 22.5523 4 22V14.4868C4 14.1978 4.12501 13.9229 4.34282 13.733L8 10.5443V6C8 5.44772 8.44772 5 9 5H23C23.5523 5 24 5.44772 24 6V22C24 22.5523 23.5523 23 23 23ZM18 13V15H20V13H18ZM18 17V19H20V17H18ZM18 9V11H20V9H18ZM14 9V11H16V9H14Z"
          fill="black"/>
        <path
          d="M11 21H14V14.9416L10 11.454L6 14.9416V21H9V17H11V21ZM23 23H5C4.44772 23 4 22.5523 4 22V14.4868C4 14.1978 4.12501 13.9229 4.34282 13.733L8 10.5443V6C8 5.44772 8.44772 5 9 5H23C23.5523 5 24 5.44772 24 6V22C24 22.5523 23.5523 23 23 23ZM18 13V15H20V13H18ZM18 17V19H20V17H18ZM18 9V11H20V9H18ZM14 9V11H16V9H14Z"
          fill="url(#paint0_linear_29_433)"/>
      </g>
    </g>
  </g>
  <defs>
    <linearGradient id="paint0_linear_29_433" x1="14" y1="5" x2="14" y2="23" gradientUnits="userSpaceOnUse">
      <stop stop-color="#53B99D"/>
      <stop offset="1" stop-color="#36D1A1"/>
    </linearGradient>
  </defs>
</svg>
